<?xml version="1.0" encoding="utf-8"?>
<!-- Generator: Adobe Illustrator 28.0.0, SVG Export Plug-In . SVG Version: 6.00 Build 0)  -->
<svg version="1.1" id="Layer_1" xmlns="http://www.w3.org/2000/svg" xmlns:xlink="http://www.w3.org/1999/xlink" x="0px" y="0px"
	 viewBox="0 0 83.6 71" style="enable-background:new 0 0 83.6 71;" xml:space="preserve">
<style type="text/css">
	.st0{fill-rule:evenodd;clip-rule:evenodd;}
</style>
<path class="st0" d="M83.6,24.2H0.5L43,0L83.6,24.2L83.6,24.2z M71.1,20.8H13.6L43,4L71.1,20.8L71.1,20.8z M14.3,31.2h-3.5v-3.5
	h17.3v3.5h-3.5v24.2h3.5v3.5H10.9v-3.5h3.5L14.3,31.2L14.3,31.2z M17.8,31.2h3.5v24.2h-3.5V31.2z M50.7,58.9H33.4v-3.5h3.5V31.2
	h-3.5v-3.5h17.3v3.5h-3.5v24.2h3.5V58.9z M43.8,55.4h-3.5V31.2h3.5V55.4z M54.2,58.9h17.3v-3.5H68V31.2h3.5v-3.5H54.2v3.5h3.5v24.2
	h-3.5V58.9z M61.1,55.4h3.5V31.2h-3.5V55.4z M76.7,64.9H7.4v-3.5h69.3L76.7,64.9L76.7,64.9z M0.5,71h83.1v-3.5H0.5V71z"/>
</svg>
