<?xml version="1.0" encoding="utf-8"?>
<!-- Generator: Adobe Illustrator 28.2.0, SVG Export Plug-In . SVG Version: 6.00 Build 0)  -->
<svg version="1.1" id="Layer_1" xmlns="http://www.w3.org/2000/svg" xmlns:xlink="http://www.w3.org/1999/xlink" x="0px" y="0px"
	 viewBox="0 0 400 400" style="enable-background:new 0 0 400 400;" xml:space="preserve">
<style type="text/css">
	.st0{fill:#FFE600;}
</style>
<g>
	<path class="st0" d="M274.1,157.9l-72.3,38.9l-75.9-42.6c-2.4-1.5-5.6-0.7-7.1,1.8c-1.5,2.5-0.7,5.6,1.8,7.1l76,42.7v76.1v8.1
		c0,2.9,2.3,5.2,5.2,5.2s5.2-2.3,5.2-5.2v-8.1v-76.1l72.4-39c2.5-1.5,3.3-4.6,1.8-7.1C279.7,157.3,276.5,156.5,274.1,157.9z"/>
	<path class="st0" d="M312.3,149.8c0-8-4.4-15.2-11.4-19L212,83.3c-6.4-3.4-14-3.4-20.3,0L102.5,131c-7,3.8-11.4,11-11.4,19v99.9
		c0,7.6,4,14.6,10.5,18.5l89.1,53.1c3.4,2,7.2,3,11,3c3.8,0,7.6-1,11-3l89.1-53.1c6.5-3.9,10.5-11,10.5-18.6L312.3,149.8z
		 M296.6,259.5l-89.1,53.1c-3.5,2.1-7.9,2.1-11.5,0l-89.1-53.1c-3.4-2-5.5-5.7-5.5-9.6V150c0-4.1,2.3-7.9,5.9-9.9l89.1-47.6
		c1.7-0.9,3.5-1.3,5.3-1.3c1.8,0,3.6,0.4,5.3,1.3L296,140c3.6,2,5.9,5.7,5.9,9.9l0.2,100C302.1,253.8,300,257.5,296.6,259.5z"/>
	<path class="st0" d="M201.8,149.1c7.3,0,13.3-5,13.3-11.1c0-6.1-5.9-11.1-13.3-11.1c-7.3,0-13.3,5-13.3,11.1
		C188.5,144.2,194.5,149.1,201.8,149.1z"/>
	<path class="st0" d="M124.1,198.2c-4.3,4.3-3.6,12,1.6,17.2s12.9,5.9,17.2,1.6c4.3-4.3,3.6-12-1.6-17.2
		C136.1,194.5,128.4,193.8,124.1,198.2z"/>
	<path class="st0" d="M153.8,245.4c-4.3,4.3-3.6,12,1.6,17.2c5.2,5.2,12.9,5.9,17.2,1.6c4.3-4.3,3.6-12-1.6-17.2
		C165.9,241.8,158.2,241.1,153.8,245.4z"/>
	<path class="st0" d="M272,189.8c-5.2,5.2-5.9,12.9-1.6,17.2c4.3,4.3,12,3.6,17.2-1.6c5.2-5.2,5.9-12.9,1.6-17.2
		C284.9,183.9,277.2,184.6,272,189.8z"/>
	<path class="st0" d="M247.1,223.2c-5.2,5.2-5.9,12.9-1.6,17.2s12,3.6,17.2-1.6c5.2-5.2,5.9-12.9,1.6-17.2
		C260,217.3,252.3,218,247.1,223.2z"/>
	<path class="st0" d="M222.3,257c-5.2,5.2-5.9,12.9-1.6,17.2c4.3,4.3,12,3.6,17.2-1.6c5.2-5.2,5.9-12.9,1.6-17.2
		C235.2,251.1,227.5,251.8,222.3,257z"/>
</g>
</svg>
