<?xml version="1.0" encoding="utf-8"?>
<!-- Generator: Adobe Illustrator 28.2.0, SVG Export Plug-In . SVG Version: 6.00 Build 0)  -->
<svg version="1.1" id="Layer_1" xmlns="http://www.w3.org/2000/svg" xmlns:xlink="http://www.w3.org/1999/xlink" x="0px" y="0px"
	 viewBox="0 0 400 400" style="enable-background:new 0 0 400 400;" xml:space="preserve">
<style type="text/css">
	.st0{fill:#FFE600;}
</style>
<g>
	<path class="st0" d="M169.3,147.3c1.8,0,3.6,0,5.5,0c0.3,1.1,0.8,2.1,1.7,3.1c4.8,5.7,20.5,5.7,25.6,0.2c2.8-3,2.2-6.6,5.6-9.4
		c0.2-0.2,1.3-0.7,1-0.6c0.2-0.1,0.4-0.1,0.6-0.2c-0.1,0,0.5-0.1,0.6-0.1c0.1,0,0.3,0,0.4-0.1c0,0,0.4,0,0.6,0c0.3,0,1.8,0,1.5,0
		c1.5,0.1,2.2,0.3,3.2,0.8c1.7,0.9,2.2,2.2,2.4,3.4c0.3,2.4-1.1,4.7-5,5.8c-0.2,0-0.3,0.1-0.5,0.1c-0.1,0-0.1,0-0.2,0
		c-0.2,0-0.4,0.1-0.5,0.1c-0.9,0.1-1.5,0.3-2,0.6c-0.1,0-0.1,0.1-0.2,0.1c-0.3,0.2-0.4,0.4-0.6,0.6c-0.2,0.4-0.2,0.8,0,1.1
		c0.1,0.1,0.2,0.3,0.3,0.4c0.5,0.6,1.5,1,2.8,1.1c0.5,0,1.1,0,1.7,0c4.1-0.5,7.1-1.7,9.1-3.3c1.3-1.1,2.2-2.4,2.7-3.7
		c1.7,0,3.5,0,5.2,0c5.1,0,5.1-4,0.1-4c-1.8,0-3.5,0-5.3,0c-1.4-4.6-7.8-8.5-18-6.9c-4.8,0.8-7.4,3-9,5.3c-1.8,2.6-1.1,6.4-5.4,8.4
		c-0.8,0.4-2.3,0.5-3.8,0.5c-2.8,0.1-4.5-0.8-5.8-2c-2.4-2.2-1.3-5.5,1.1-7.6c1.3-1.2,3.7-1.8,6.1-2.1c4.9-0.6,2.9-4.5-2-3.9
		c-8,1-12.6,4.4-13.9,8.2c-1.8,0-3.7,0-5.5,0C164.3,143.3,164.2,147.3,169.3,147.3z"/>
	<path class="st0" d="M320.6,121h-40.4h-27.4H147.2h-27.4H79.4c-2.7,0-4.9,2.2-4.9,4.9c0,2.7,2.2,4.9,4.9,4.9h33.7L83,225.7
		c-0.5,1.5-0.2,3.1,0.7,4.4s2.4,2,3.9,2h224.7c1.6,0,3-0.7,3.9-2s1.2-2.9,0.7-4.4l-30.2-94.9h33.7c2.7,0,4.9-2.2,4.9-4.9
		C325.4,123.2,323.3,121,320.6,121z M249.2,130.8l13.2,40.4c-8.1,2.3-14.4,9-16.2,17.3h-92.6c-1.8-8.3-8.1-15-16.2-17.3l13.2-40.4
		H249.2z M305.7,222.3H94.3l29.1-91.5h17.1l-14,42.8c0,0.1,0,0.2-0.1,0.3c0,0.2-0.1,0.3-0.1,0.5c0,0.2,0,0.3-0.1,0.5
		c0,0.1,0,0.2,0,0.2c0,0.1,0,0.1,0,0.2c0,0.2,0,0.4,0.1,0.5c0,0.1,0,0.3,0.1,0.4c0,0.2,0.1,0.3,0.1,0.5c0.1,0.1,0.1,0.3,0.2,0.4
		c0.1,0.1,0.1,0.3,0.2,0.4c0.1,0.1,0.2,0.3,0.2,0.4c0.1,0.1,0.2,0.3,0.3,0.4c0.1,0.1,0.2,0.2,0.3,0.3c0.1,0.1,0.2,0.2,0.4,0.3
		c0.1,0.1,0.2,0.2,0.4,0.3c0.1,0.1,0.3,0.2,0.4,0.2c0.2,0.1,0.3,0.1,0.5,0.2c0.1,0,0.1,0.1,0.2,0.1c0.1,0,0.2,0,0.3,0.1
		c0.2,0,0.3,0.1,0.5,0.1c0.2,0,0.4,0,0.5,0.1c0.1,0,0.2,0,0.2,0c7.4,0,13.4,6,13.4,13.4c0,2.7,2.2,4.9,4.9,4.9h101.3
		c2.7,0,4.9-2.2,4.9-4.9c0-7.4,6-13.4,13.4-13.4c0,0,0,0,0,0c0,0,0,0,0,0c0.5,0,0.9-0.1,1.3-0.2c0.1,0,0.1,0,0.2,0
		c0.1,0,0.1-0.1,0.2-0.1c0.2-0.1,0.3-0.1,0.5-0.2c0.1-0.1,0.3-0.1,0.4-0.2c0.1-0.1,0.3-0.2,0.4-0.3c0.1-0.1,0.3-0.2,0.4-0.3
		c0.1-0.1,0.2-0.2,0.3-0.3c0.1-0.1,0.2-0.2,0.3-0.4c0.1-0.1,0.2-0.3,0.2-0.4c0.1-0.1,0.2-0.3,0.2-0.4c0.1-0.1,0.1-0.3,0.2-0.4
		c0.1-0.2,0.1-0.3,0.1-0.5c0-0.1,0.1-0.3,0.1-0.4c0-0.2,0-0.4,0.1-0.5c0-0.1,0-0.1,0-0.2c0-0.1,0-0.2,0-0.2c0-0.2,0-0.3-0.1-0.5
		c0-0.2-0.1-0.3-0.1-0.5c0-0.1,0-0.2-0.1-0.3l-14-42.8h17.1L305.7,222.3z"/>
	<path class="st0" d="M312.9,257.4c-0.5,0-47.5-4.9-112.9-4.9s-112.4,4.8-112.9,4.9c-2.7,0.3-4.6,2.7-4.4,5.4
		c0.3,2.5,2.4,4.4,4.9,4.4c0.2,0,0.3,0,0.5,0c0.5,0,47.1-4.8,111.9-4.8s111.4,4.8,111.9,4.8c2.6,0.3,5.1-1.7,5.4-4.4
		C317.5,260.1,315.6,257.7,312.9,257.4z"/>
	<path class="st0" d="M307.2,291.5C305.4,291,263.6,280,200,280c-60.9,0-105.3,11-107.1,11.4c-2.6,0.7-4.2,3.3-3.5,5.9
		c0.6,2.2,2.5,3.7,4.7,3.7c0.4,0,0.8,0,1.2-0.1c0.4-0.1,45.1-11.1,104.7-11.1c62.2,0,104.3,11,104.7,11.1c2.6,0.7,5.3-0.9,6-3.5
		C311.3,294.9,309.8,292.2,307.2,291.5z"/>
</g>
</svg>
