<?xml version="1.0" encoding="UTF-8"?>
<svg id="Layer_1" data-name="Layer 1" xmlns="http://www.w3.org/2000/svg" viewBox="0 0 400 400">
  <defs>
    <style>
      .cls-1 {
        fill: #ffe500;
        stroke-width: 0px;
      }
    </style>
  </defs>
  <path class="cls-1" d="M274.7335,302.2423c-20.5142,0-37.2046-16.6903-37.2046-37.2046s16.6903-37.2071,37.2046-37.2071,37.2071,16.6903,37.2071,37.2071-16.6903,37.2046-37.2071,37.2046ZM274.7335,237.6321c-15.1102,0-27.4032,12.2955-27.4032,27.4057s12.293,27.4032,27.4032,27.4032,27.4057-12.293,27.4057-27.4032-12.2955-27.4057-27.4057-27.4057Z"/>
  <path class="cls-1" d="M270.9234,279.6286c-1.0916,0-2.1833-.4162-3.0156-1.2485l-8.4542-8.4542c-1.6647-1.6647-1.6647-4.3666,0-6.0313s4.3666-1.6647,6.0313,0l5.4386,5.4386,14.1456-14.1456c1.6647-1.6647,4.3666-1.6647,6.0313,0,1.6647,1.6647,1.6647,4.3666,0,6.0313l-17.1612,17.1612c-.8323.8323-1.924,1.2485-3.0156,1.2485Z"/>
  <path class="cls-1" d="M199.6031,324.1564c-36.4558,0-70.7154-16.1544-93.9943-44.3214-.4032-.4958-.581-.7162-.7437-.9491-.5259-.7412-.8339-1.6152-.889-2.5217-.0401-.621-.0426-1.2446-.0426-1.9057,0-30.0301,13.7029-57.7363,37.5952-76.0118,2.1436-1.6427,5.2212-1.2396,6.8715.9165,1.6427,2.1486,1.2346,5.2262-.9165,6.8715-21.4032,16.3723-33.6987,41.1712-33.7488,68.061,21.1953,25.3698,52.5326,40.0593,85.8682,40.0593,14.1636,0,27.9691-2.6119,41.0334-7.7655,2.5242-1.0067,5.3614.2429,6.3581,2.7621.9917,2.5192-.2429,5.3639-2.7621,6.3581-14.2137,5.6043-29.2287,8.4466-44.6294,8.4466Z"/>
  <path class="cls-1" d="M280.5106,238.1579c-1.7855,0-3.5058-.9791-4.3723-2.677-9.8214-19.2696-26.364-34.0117-46.5777-41.5117-2.5367-.9416-3.8314-3.7613-2.8898-6.3005.9441-2.5367,3.7563-3.8239,6.3005-2.8898,22.5251,8.3589,40.9583,24.7838,51.9016,46.2496,1.2296,2.4115.2705,5.3639-2.1411,6.5935-.7137.3631-1.4725.5359-2.2212.5359Z"/>
  <path class="cls-1" d="M199.6006,203.9258c-34.0167,0-61.6929-27.6762-61.6929-61.6929s27.6762-61.6929,61.6929-61.6929c12.3681,0,24.2955,3.6436,34.4975,10.5376,4.4524,3.0075,8.5042,6.5935,12.0426,10.6528,3.6736,4.222,6.7563,8.9124,9.1603,13.9433,3.9791,8.3314,5.995,17.2688,5.995,26.5593,0,34.0167-27.6762,61.6929-61.6954,61.6929ZM199.6006,90.3414c-28.6127,0-51.8915,23.2788-51.8915,51.8915s23.2788,51.8915,51.8915,51.8915,51.894-23.2788,51.894-51.8915c0-7.818-1.6953-15.3331-5.0384-22.3348-2.0209-4.2296-4.6152-8.1761-7.7079-11.7296-2.9775-3.4182-6.3907-6.4357-10.1369-8.9675-8.5768-5.7972-18.6085-8.8598-29.0109-8.8598Z"/>
</svg>