<?xml version="1.0" encoding="utf-8"?>
<!-- Generator: Adobe Illustrator 28.0.0, SVG Export Plug-In . SVG Version: 6.00 Build 0)  -->
<svg version="1.1" id="Layer_1" xmlns="http://www.w3.org/2000/svg" xmlns:xlink="http://www.w3.org/1999/xlink" x="0px" y="0px"
	 viewBox="0 0 1000 210.8" style="enable-background:new 0 0 1000 210.8;" xml:space="preserve">
<style type="text/css">
	.st0{fill:#0EE06E;}
</style>
<g>
	<g>
		<path class="st0" d="M333.4,167.2V32.1h-48.5V0h131.9v32.1h-48.5v135.1H333.4z"/>
		<path class="st0" d="M411.3,167.2V45.9h32.1v19.2c7.6-16.3,17.4-19.2,27.9-19.2h12.4v32.5h-10.5c-15.1,0-28.6,8.7-28.6,35.3v53.6
			h-33.3V167.2z"/>
		<path class="st0" d="M498.8,122.8V45.9H532v69.4c0,14.2,6.9,24.7,21.1,24.7c13.7,0,22.4-10.5,22.4-24.5V45.9h33.2v121.4h-31.6V152
			c-8,12.1-19.9,18.1-35,18.1C515.5,170,498.8,151.7,498.8,122.8z"/>
		<path class="st0" d="M622.9,133.1l28.9-6.6c1.4,9.4,8.9,16.5,23.4,16.5c11.2,0,17.4-4.6,17.4-10.3c0-4.6-2.5-8-14-10.5l-19-4.1
			c-24.3-5.3-34.6-16.5-34.6-36.9c0-20.8,17.2-37.6,49.5-37.6c34.3,0,48.1,20.6,49.5,34.1l-29.1,6.4c-1.4-7.1-6.6-14.9-21.1-14.9
			c-9.2,0-16,4.1-16,10.1c0,5,3.4,7.8,9.4,9.2l27.7,6.4c21.1,4.8,30.9,17.4,30.9,35.3c0,19.2-15.3,39.4-50.4,39.4
			C636.8,169.5,624.2,146.4,622.9,133.1z"/>
		<path class="st0" d="M789.6,167.2c-21.5,0-35.9-11.9-35.9-35.5V74.9h-20.4V45.8h20.4v-27l33.2-9.6v36.6h24.5v29.1h-24.5v50.8
			c0,8.9,4.6,12.4,13.5,12.4h12.8v29.1H789.6z"/>
		<path class="st0" d="M831.2,167.2V0.1h33.2v167.2h-33.2V167.2z"/>
		<path class="st0" d="M964.5,45.9h35.5l-50.6,164.9h-35.5l14-43.5h-18.3L876.2,45.9h35.5l25,93.9L964.5,45.9z"/>
	</g>
	<polygon class="st0" points="0,73.3 77.9,73.3 77.9,11.1 140.1,73.3 77.9,135.4 77.9,167.2 153.4,167.2 153.4,73.3 222.7,73.3 
		222.7,0.1 0,0.1 	"/>
</g>
</svg>
